<svg id="Layer_1" data-name="Layer 1" xmlns="http://www.w3.org/2000/svg" viewBox="0 0 285.96 260.94"><defs><style>.cls-1{fill:#333;}.cls-2{fill:#f59598;}.cls-3{fill:#f26a6b;}.cls-4{fill:#010101;}</style></defs><path class="cls-1" d="M3.89,237.42l1-215.17A17.57,17.57,0,0,1,22.55,4.78l79.36.36a19.13,19.13,0,0,1,13.49,5.64L136.48,32A19.13,19.13,0,0,0,150,37.63l114.57.52a17.59,17.59,0,0,1,17.53,17.63l-.83,182.9a17.58,17.58,0,0,1-17.69,17.47L21.42,255.06A17.59,17.59,0,0,1,3.89,237.42Z"/><path class="cls-2" d="M256.66,76.3V65a8.3,8.3,0,0,0-8.3-8.3H30.16a8.29,8.29,0,0,0-8.3,8.3v58.89h234.8V76.3"/><path class="cls-3" d="M277.2,98.12V86.79a8.3,8.3,0,0,0-8.31-8.3H50.7a8.3,8.3,0,0,0-8.31,8.3v58.89H277.2V98.12"/><path class="cls-1" d="M4.24,129.19v110a17,17,0,0,0,17,17H265.05a17,17,0,0,0,17-17l-.32-148.49h0A14.34,14.34,0,0,0,267.36,76.3h-72a14.35,14.35,0,0,0-10.15,4.2L166.17,99.58a11.91,11.91,0,0,1-8.41,3.49L30,103.34a25.85,25.85,0,0,0-25.8,25.85Z"/><path class="cls-4" d="M282.07,239.14a17,17,0,0,1-16.95,17V76.29h2.27a14.36,14.36,0,0,1,14.36,14.36Z"/></svg>