<svg id="Layer_1" data-name="Layer 1" xmlns="http://www.w3.org/2000/svg" viewBox="0 0 285.96 260.94"><defs><style>.cls-1{fill:#333;}.cls-2{fill:#fff4e2;}.cls-3{fill:#d8be9a;}.cls-4{fill:#010101;}</style></defs><path class="cls-1" d="M3.69,237.42l1-215.17A17.58,17.58,0,0,1,22.35,4.78l79.35.36a19.11,19.11,0,0,1,13.49,5.64L136.27,32a19.13,19.13,0,0,0,13.5,5.64l114.56.52a17.58,17.58,0,0,1,17.53,17.63L281,238.68a17.57,17.57,0,0,1-17.68,17.47L21.21,255.06A17.58,17.58,0,0,1,3.69,237.42Z"/><path class="cls-2" d="M256.46,76.3V65a8.3,8.3,0,0,0-8.31-8.3H30A8.3,8.3,0,0,0,21.65,65v58.89H256.46V76.3"/><path class="cls-3" d="M277.81,101.85V90.53a8.31,8.31,0,0,0-8.3-8.31H51.31A8.31,8.31,0,0,0,43,90.53v58.89h234.8V101.85"/><path class="cls-1" d="M4,129.19v110a17,17,0,0,0,17,17H264.85a17,17,0,0,0,17-17l-.31-148.49h0A14.35,14.35,0,0,0,267.15,76.3h-72A14.38,14.38,0,0,0,185,80.5L166,99.58a11.89,11.89,0,0,1-8.41,3.49l-127.72.27A25.85,25.85,0,0,0,4,129.19Z"/><path class="cls-4" d="M282.27,239.14a17,17,0,0,1-16.94,17V76.3h2.27A14.34,14.34,0,0,1,282,90.65Z"/></svg>