<svg id="Layer_1" data-name="Layer 1" xmlns="http://www.w3.org/2000/svg" viewBox="0 0 200 200"><defs><style>.cls-1{fill:#f4f4f4;}.cls-2{fill:#fff4e2;}.cls-3{fill:#d8be9a;}.cls-4{fill:#c4c4c4;}</style></defs><path class="cls-1" d="M17.69,163.2l.58-127.15A10.38,10.38,0,0,1,28.72,25.73l46.89.21a11.32,11.32,0,0,1,8,3.34L96,41.81a11.29,11.29,0,0,0,8,3.33l67.7.31a10.4,10.4,0,0,1,10.36,10.42l-.49,108.07a10.4,10.4,0,0,1-10.45,10.33l-143.08-.65A10.39,10.39,0,0,1,17.69,163.2Z"/><path class="cls-2" d="M167.05,68V61.3a4.9,4.9,0,0,0-4.9-4.91H33.21a4.9,4.9,0,0,0-4.9,4.91V96.1H167.05V68"/><path class="cls-3" d="M179.67,83.09V76.4a4.9,4.9,0,0,0-4.9-4.91H45.83a4.9,4.9,0,0,0-4.9,4.91v34.8H179.67V83.09"/><path class="cls-1" d="M17.9,99.25v65a10,10,0,0,0,10,10H172a10,10,0,0,0,10-10.05l-.18-87.75h0A8.49,8.49,0,0,0,173.37,68H130.85a8.46,8.46,0,0,0-6,2.48L113.58,81.75a7,7,0,0,1-5,2.06L33.14,84A15.28,15.28,0,0,0,17.9,99.25Z"/><path class="cls-4" d="M182.31,164.21a10,10,0,0,1-10,10.06V68h1.34a8.47,8.47,0,0,1,8.48,8.48Z"/></svg>