<svg id="Layer_1" data-name="Layer 1" xmlns="http://www.w3.org/2000/svg" viewBox="0 0 200 200"><defs><style>.cls-1{fill:#f4f4f4;}.cls-2{fill:#f5dcea;}.cls-3{fill:#e7bdd9;}.cls-4{fill:#c4c4c4;}</style></defs><path class="cls-1" d="M17.81,163.2l.58-127.14A10.38,10.38,0,0,1,28.84,25.73l46.89.21a11.34,11.34,0,0,1,8,3.34L96.16,41.81a11.31,11.31,0,0,0,8,3.33l67.7.31a10.39,10.39,0,0,1,10.36,10.42l-.49,108.07a10.39,10.39,0,0,1-10.45,10.33l-143.08-.65A10.39,10.39,0,0,1,17.81,163.2Z"/><path class="cls-2" d="M167.18,68V61.3a4.91,4.91,0,0,0-4.91-4.91H33.34a4.91,4.91,0,0,0-4.91,4.91V96.1H167.18V68"/><path class="cls-3" d="M181.19,83.09V76.4a4.9,4.9,0,0,0-4.9-4.91H47.35a4.9,4.9,0,0,0-4.9,4.91v34.8H181.19V83.09"/><path class="cls-1" d="M18,99.25v65a10,10,0,0,0,10,10H172.13a10,10,0,0,0,10-10.05L182,76.47h0A8.48,8.48,0,0,0,173.5,68H131a8.48,8.48,0,0,0-6,2.48L113.7,81.75a7,7,0,0,1-5,2.06L33.26,84A15.28,15.28,0,0,0,18,99.25Z"/><path class="cls-4" d="M182.17,164.21a10,10,0,0,1-10,10.06V68h1.35A8.47,8.47,0,0,1,182,76.47Z"/></svg>